<svg height='100px' width='100px'  fill="#f4f4f9" xmlns="http://www.w3.org/2000/svg" xmlns:xlink="http://www.w3.org/1999/xlink" version="1.1" x="0px" y="0px" viewBox="-55 147 500 500" style="enable-background:new -55 147 500 500;" xml:space="preserve"><g><path d="M212.5,256.4c1.9,1-2.6,1.4-4.8,5.6c-2.3,4.2-1.4,10.8-3.3,9.7c-1.9-1-3.2-9.3-0.9-13.5C205.6,254,210.5,255.4,212.5,256.4   z"></path><path d="M142.1,534c4.4,1.6,8.4,3.9,12,6.7c10.1-11.9,10.5-27.7,10.8-31.7c0.5-7.5,5.7-19.2,9.4-27.8c1.5-3.4,2.7-6.3,3.3-7.9   c0.7-2,2.9-3.1,4.9-2.4s3.1,2.9,2.4,4.9c-0.7,2-1.9,4.9-3.5,8.6c-3.3,7.6-8.3,19.1-8.8,25.3c-0.3,4.6,2.3,10.2,6.2,18.8   c7.9,17.2,21,45.8,29.2,104.9c3,4,4.9,8.9,5.4,13.4c-2.6,0.2-5.1,0.3-7.7,0.4c-0.4-2.4-1.4-5.5-3.4-8.4c-0.3-0.4-0.6-0.9-1-1.3   c-0.1-0.1-0.1-0.1-0.2-0.2c-3.1-3.9-8.4-7.4-16.7-5.4c-12.8,3.1-22.5,3.5-27.9-4.6c-3.7-5.6-4-13-0.7-19.3c3-5.8,7.9-18,7-35.4   c-0.7-13.8-10-26-23.6-31.1c-20.3-7.6-45.2,1.8-68.4,25.9c-1.5,1.5-3.9,1.6-5.4,0.1s-1.6-3.9-0.1-5.4   C90.9,535.4,118.8,525.3,142.1,534z"></path><path d="M196.1,147C334.2,147.6,445,259,445,397.1c0,111.1-72.5,205.3-172.7,237.9c-2.5-1.4-5.5-2.8-8.9-4   c-8.6-3.1-14.2-10.8-16.7-22.9c-1.7-8.5-3.3-16.2-4.8-23.3c-11.3-54.2-16-76.7-5-179.7c0.7-6.2,1.5-12.1,2.5-18.3   c1.2-8.1,2.5-16.4,3.4-26.2l0,0l0,0c1.1-10.7,3.5-35.7,4.5-47.6c-0.2,0.2-0.4,0.5-0.5,0.7c-0.5,0.8-1,1.5-1.5,2.3   c-2.4,3.7-4.9,7.5-8.2,10.8c-9.2,9.1-22.2,11.8-33.7,13.3c-0.2,0-0.3,0-0.5,0c-2.2,0-4-1.8-3.8-4.2c0.1-1.8,1.7-3.3,3.5-3.5   c10.2-1.3,21.6-3.7,29.1-11.1c2.7-2.7,4.9-6,7.1-9.5c0.5-0.8,1-1.6,1.5-2.3c3-4.5,8.6-12,12.4-16.5c5.3-8.8,13-17.3,14.8-19.2   c5.7-8,13.2-22.5,10-29.2c-2.9,0.2-10.8,3.7-18,7.9c-1.1,0.7-2.5,0.7-3.6,0.2c-1.2-0.6-2-1.7-2.1-2.9c-1-7.4,0.1-15,3-21.8   c1.7-4.1,1.4-8.7-1.1-12.4c-2.5-3.6-5.5-7.4-7.6-7.9c-0.8-0.2-2-0.3-3.5,0.9c-9.4,7.2-33,36.8-33.2,37.1c-0.7,0.8-1.7,1.4-2.8,1.4   c-0.1,0-5.7,0.4-9.8,2.8c-3.2,1.9-13.2,11.6-18.8,17.4l-4.6,5.5c-6.7,7.9-18.9,12.2-29.6,15.9c-4.2,1.4-8.1,2.8-11.4,4.3   c-1.9,0.8-4.4,1.9-7.1,2.9c-1.8,0.7-3.7,1.5-5.5,2.2c3,1.7,6.8,3.6,8.1,4l14.2,3.8c1,0.3,1.9,0.9,2.4,1.8c0.5,0.9,0.6,2,0.3,3   s-7.5,25.3-26.4,54.3l0,0c-1.1,1.7-4.2,6.2-8.8,12.9c-17.4,25.2-58.1,84.1-74.5,115c-12.9,24.3-22.8,47-30.2,69.1   C-31.7,517.8-55,460.2-55,397.1C-55,258.6,57.5,146.4,196.1,147z"></path></g></svg>